<svg xmlns="http://www.w3.org/2000/svg" version="1.1" viewBox="0 0 100 50"><rect width="2.0" height="50" x="0.0" y="0"/><rect width="3.9" height="50" x="3.9" y="0"/><rect width="2.0" height="50" x="11.8" y="0"/><rect width="2.0" height="50" x="17.6" y="0"/><rect width="2.0" height="50" x="21.6" y="0"/><rect width="2.0" height="50" x="25.5" y="0"/><rect width="3.9" height="50" x="29.4" y="0"/><rect width="2.0" height="50" x="37.3" y="0"/><rect width="2.0" height="50" x="41.2" y="0"/><rect width="2.0" height="50" x="45.1" y="0"/><rect width="2.0" height="50" x="51.0" y="0"/><rect width="3.9" height="50" x="54.9" y="0"/><rect width="3.9" height="50" x="60.8" y="0"/><rect width="2.0" height="50" x="68.6" y="0"/><rect width="2.0" height="50" x="72.5" y="0"/><rect width="2.0" height="50" x="76.5" y="0"/><rect width="2.0" height="50" x="80.4" y="0"/><rect width="3.9" height="50" x="84.3" y="0"/><rect width="2.0" height="50" x="92.2" y="0"/><rect width="2.0" height="50" x="98.0" y="0.0"/></svg>