<?xml version="1.0" standalone="yes"?><svg xmlns="http://www.w3.org/2000/svg" version="1.1" width="256" height="256"><rect x="0" y="0" width="256" height="256" style="fill:#ffffff;shape-rendering:crispEdges;"/><rect x="0" y="0" width="12.19047619047619" height="12.19047619047619" style="fill:#000000;shape-rendering:crispEdges;"/><rect x="12.19047619047619" y="0" width="12.19047619047619" height="12.19047619047619" style="fill:#000000;shape-rendering:crispEdges;"/><rect x="24.38095238095238" y="0" width="12.19047619047619" height="12.19047619047619" style="fill:#000000;shape-rendering:crispEdges;"/><rect x="36.57142857142857" y="0" width="12.19047619047619" height="12.19047619047619" style="fill:#000000;shape-rendering:crispEdges;"/><rect x="48.76190476190476" y="0" width="12.19047619047619" height="12.19047619047619" style="fill:#000000;shape-rendering:crispEdges;"/><rect x="60.95238095238095" y="0" width="12.19047619047619" height="12.19047619047619" style="fill:#000000;shape-rendering:crispEdges;"/><rect x="73.14285714285714" y="0" width="12.19047619047619" height="12.19047619047619" style="fill:#000000;shape-rendering:crispEdges;"/><rect x="97.52380952380952" y="0" width="12.19047619047619" height="12.19047619047619" style="fill:#000000;shape-rendering:crispEdges;"/><rect x="109.71428571428571" y="0" width="12.19047619047619" height="12.19047619047619" style="fill:#000000;shape-rendering:crispEdges;"/><rect x="121.9047619047619" y="0" width="12.19047619047619" height="12.19047619047619" style="fill:#000000;shape-rendering:crispEdges;"/><rect x="170.66666666666666" y="0" width="12.19047619047619" height="12.19047619047619" style="fill:#000000;shape-rendering:crispEdges;"/><rect x="182.85714285714283" y="0" width="12.19047619047619" height="12.19047619047619" style="fill:#000000;shape-rendering:crispEdges;"/><rect x="195.04761904761904" y="0" width="12.19047619047619" height="12.19047619047619" style="fill:#000000;shape-rendering:crispEdges;"/><rect x="207.23809523809524" y="0" width="12.19047619047619" height="12.19047619047619" style="fill:#000000;shape-rendering:crispEdges;"/><rect x="219.42857142857142" y="0" width="12.19047619047619" height="12.19047619047619" style="fill:#000000;shape-rendering:crispEdges;"/><rect x="231.6190476190476" y="0" width="12.19047619047619" height="12.19047619047619" style="fill:#000000;shape-rendering:crispEdges;"/><rect x="243.8095238095238" y="0" width="12.19047619047619" height="12.19047619047619" style="fill:#000000;shape-rendering:crispEdges;"/><rect x="0" y="12.19047619047619" width="12.19047619047619" height="12.19047619047619" style="fill:#000000;shape-rendering:crispEdges;"/><rect x="73.14285714285714" y="12.19047619047619" width="12.19047619047619" height="12.19047619047619" style="fill:#000000;shape-rendering:crispEdges;"/><rect x="121.9047619047619" y="12.19047619047619" width="12.19047619047619" height="12.19047619047619" style="fill:#000000;shape-rendering:crispEdges;"/><rect x="146.28571428571428" y="12.19047619047619" width="12.19047619047619" height="12.19047619047619" style="fill:#000000;shape-rendering:crispEdges;"/><rect x="170.66666666666666" y="12.19047619047619" width="12.19047619047619" height="12.19047619047619" style="fill:#000000;shape-rendering:crispEdges;"/><rect x="243.8095238095238" y="12.19047619047619" width="12.19047619047619" height="12.19047619047619" style="fill:#000000;shape-rendering:crispEdges;"/><rect x="0" y="24.38095238095238" width="12.19047619047619" height="12.19047619047619" style="fill:#000000;shape-rendering:crispEdges;"/><rect x="24.38095238095238" y="24.38095238095238" width="12.19047619047619" height="12.19047619047619" style="fill:#000000;shape-rendering:crispEdges;"/><rect x="36.57142857142857" y="24.38095238095238" width="12.19047619047619" height="12.19047619047619" style="fill:#000000;shape-rendering:crispEdges;"/><rect x="48.76190476190476" y="24.38095238095238" width="12.19047619047619" height="12.19047619047619" style="fill:#000000;shape-rendering:crispEdges;"/><rect x="73.14285714285714" y="24.38095238095238" width="12.19047619047619" height="12.19047619047619" style="fill:#000000;shape-rendering:crispEdges;"/><rect x="121.9047619047619" y="24.38095238095238" width="12.19047619047619" height="12.19047619047619" style="fill:#000000;shape-rendering:crispEdges;"/><rect x="170.66666666666666" y="24.38095238095238" width="12.19047619047619" height="12.19047619047619" style="fill:#000000;shape-rendering:crispEdges;"/><rect x="195.04761904761904" y="24.38095238095238" width="12.19047619047619" height="12.19047619047619" style="fill:#000000;shape-rendering:crispEdges;"/><rect x="207.23809523809524" y="24.38095238095238" width="12.19047619047619" height="12.19047619047619" style="fill:#000000;shape-rendering:crispEdges;"/><rect x="219.42857142857142" y="24.38095238095238" width="12.19047619047619" height="12.19047619047619" style="fill:#000000;shape-rendering:crispEdges;"/><rect x="243.8095238095238" y="24.38095238095238" width="12.19047619047619" height="12.19047619047619" style="fill:#000000;shape-rendering:crispEdges;"/><rect x="0" y="36.57142857142857" width="12.19047619047619" height="12.19047619047619" style="fill:#000000;shape-rendering:crispEdges;"/><rect x="24.38095238095238" y="36.57142857142857" width="12.19047619047619" height="12.19047619047619" style="fill:#000000;shape-rendering:crispEdges;"/><rect x="36.57142857142857" y="36.57142857142857" width="12.19047619047619" height="12.19047619047619" style="fill:#000000;shape-rendering:crispEdges;"/><rect x="48.76190476190476" y="36.57142857142857" width="12.19047619047619" height="12.19047619047619" style="fill:#000000;shape-rendering:crispEdges;"/><rect x="73.14285714285714" y="36.57142857142857" width="12.19047619047619" height="12.19047619047619" style="fill:#000000;shape-rendering:crispEdges;"/><rect x="109.71428571428571" y="36.57142857142857" width="12.19047619047619" height="12.19047619047619" style="fill:#000000;shape-rendering:crispEdges;"/><rect x="121.9047619047619" y="36.57142857142857" width="12.19047619047619" height="12.19047619047619" style="fill:#000000;shape-rendering:crispEdges;"/><rect x="134.09523809523807" y="36.57142857142857" width="12.19047619047619" height="12.19047619047619" style="fill:#000000;shape-rendering:crispEdges;"/><rect x="146.28571428571428" y="36.57142857142857" width="12.19047619047619" height="12.19047619047619" style="fill:#000000;shape-rendering:crispEdges;"/><rect x="170.66666666666666" y="36.57142857142857" width="12.19047619047619" height="12.19047619047619" style="fill:#000000;shape-rendering:crispEdges;"/><rect x="195.04761904761904" y="36.57142857142857" width="12.19047619047619" height="12.19047619047619" style="fill:#000000;shape-rendering:crispEdges;"/><rect x="207.23809523809524" y="36.57142857142857" width="12.19047619047619" height="12.19047619047619" style="fill:#000000;shape-rendering:crispEdges;"/><rect x="219.42857142857142" y="36.57142857142857" width="12.19047619047619" height="12.19047619047619" style="fill:#000000;shape-rendering:crispEdges;"/><rect x="243.8095238095238" y="36.57142857142857" width="12.19047619047619" height="12.19047619047619" style="fill:#000000;shape-rendering:crispEdges;"/><rect x="0" y="48.76190476190476" width="12.19047619047619" height="12.19047619047619" style="fill:#000000;shape-rendering:crispEdges;"/><rect x="24.38095238095238" y="48.76190476190476" width="12.19047619047619" height="12.19047619047619" style="fill:#000000;shape-rendering:crispEdges;"/><rect x="36.57142857142857" y="48.76190476190476" width="12.19047619047619" height="12.19047619047619" style="fill:#000000;shape-rendering:crispEdges;"/><rect x="48.76190476190476" y="48.76190476190476" width="12.19047619047619" height="12.19047619047619" style="fill:#000000;shape-rendering:crispEdges;"/><rect x="73.14285714285714" y="48.76190476190476" width="12.19047619047619" height="12.19047619047619" style="fill:#000000;shape-rendering:crispEdges;"/><rect x="97.52380952380952" y="48.76190476190476" width="12.19047619047619" height="12.19047619047619" style="fill:#000000;shape-rendering:crispEdges;"/><rect x="109.71428571428571" y="48.76190476190476" width="12.19047619047619" height="12.19047619047619" style="fill:#000000;shape-rendering:crispEdges;"/><rect x="121.9047619047619" y="48.76190476190476" width="12.19047619047619" height="12.19047619047619" style="fill:#000000;shape-rendering:crispEdges;"/><rect x="134.09523809523807" y="48.76190476190476" width="12.19047619047619" height="12.19047619047619" style="fill:#000000;shape-rendering:crispEdges;"/><rect x="170.66666666666666" y="48.76190476190476" width="12.19047619047619" height="12.19047619047619" style="fill:#000000;shape-rendering:crispEdges;"/><rect x="195.04761904761904" y="48.76190476190476" width="12.19047619047619" height="12.19047619047619" style="fill:#000000;shape-rendering:crispEdges;"/><rect x="207.23809523809524" y="48.76190476190476" width="12.19047619047619" height="12.19047619047619" style="fill:#000000;shape-rendering:crispEdges;"/><rect x="219.42857142857142" y="48.76190476190476" width="12.19047619047619" height="12.19047619047619" style="fill:#000000;shape-rendering:crispEdges;"/><rect x="243.8095238095238" y="48.76190476190476" width="12.19047619047619" height="12.19047619047619" style="fill:#000000;shape-rendering:crispEdges;"/><rect x="0" y="60.95238095238095" width="12.19047619047619" height="12.19047619047619" style="fill:#000000;shape-rendering:crispEdges;"/><rect x="73.14285714285714" y="60.95238095238095" width="12.19047619047619" height="12.19047619047619" style="fill:#000000;shape-rendering:crispEdges;"/><rect x="121.9047619047619" y="60.95238095238095" width="12.19047619047619" height="12.19047619047619" style="fill:#000000;shape-rendering:crispEdges;"/><rect x="170.66666666666666" y="60.95238095238095" width="12.19047619047619" height="12.19047619047619" style="fill:#000000;shape-rendering:crispEdges;"/><rect x="243.8095238095238" y="60.95238095238095" width="12.19047619047619" height="12.19047619047619" style="fill:#000000;shape-rendering:crispEdges;"/><rect x="0" y="73.14285714285714" width="12.19047619047619" height="12.19047619047619" style="fill:#000000;shape-rendering:crispEdges;"/><rect x="12.19047619047619" y="73.14285714285714" width="12.19047619047619" height="12.19047619047619" style="fill:#000000;shape-rendering:crispEdges;"/><rect x="24.38095238095238" y="73.14285714285714" width="12.19047619047619" height="12.19047619047619" style="fill:#000000;shape-rendering:crispEdges;"/><rect x="36.57142857142857" y="73.14285714285714" width="12.19047619047619" height="12.19047619047619" style="fill:#000000;shape-rendering:crispEdges;"/><rect x="48.76190476190476" y="73.14285714285714" width="12.19047619047619" height="12.19047619047619" style="fill:#000000;shape-rendering:crispEdges;"/><rect x="60.95238095238095" y="73.14285714285714" width="12.19047619047619" height="12.19047619047619" style="fill:#000000;shape-rendering:crispEdges;"/><rect x="73.14285714285714" y="73.14285714285714" width="12.19047619047619" height="12.19047619047619" style="fill:#000000;shape-rendering:crispEdges;"/><rect x="97.52380952380952" y="73.14285714285714" width="12.19047619047619" height="12.19047619047619" style="fill:#000000;shape-rendering:crispEdges;"/><rect x="121.9047619047619" y="73.14285714285714" width="12.19047619047619" height="12.19047619047619" style="fill:#000000;shape-rendering:crispEdges;"/><rect x="146.28571428571428" y="73.14285714285714" width="12.19047619047619" height="12.19047619047619" style="fill:#000000;shape-rendering:crispEdges;"/><rect x="170.66666666666666" y="73.14285714285714" width="12.19047619047619" height="12.19047619047619" style="fill:#000000;shape-rendering:crispEdges;"/><rect x="182.85714285714283" y="73.14285714285714" width="12.19047619047619" height="12.19047619047619" style="fill:#000000;shape-rendering:crispEdges;"/><rect x="195.04761904761904" y="73.14285714285714" width="12.19047619047619" height="12.19047619047619" style="fill:#000000;shape-rendering:crispEdges;"/><rect x="207.23809523809524" y="73.14285714285714" width="12.19047619047619" height="12.19047619047619" style="fill:#000000;shape-rendering:crispEdges;"/><rect x="219.42857142857142" y="73.14285714285714" width="12.19047619047619" height="12.19047619047619" style="fill:#000000;shape-rendering:crispEdges;"/><rect x="231.6190476190476" y="73.14285714285714" width="12.19047619047619" height="12.19047619047619" style="fill:#000000;shape-rendering:crispEdges;"/><rect x="243.8095238095238" y="73.14285714285714" width="12.19047619047619" height="12.19047619047619" style="fill:#000000;shape-rendering:crispEdges;"/><rect x="97.52380952380952" y="85.33333333333333" width="12.19047619047619" height="12.19047619047619" style="fill:#000000;shape-rendering:crispEdges;"/><rect x="109.71428571428571" y="85.33333333333333" width="12.19047619047619" height="12.19047619047619" style="fill:#000000;shape-rendering:crispEdges;"/><rect x="134.09523809523807" y="85.33333333333333" width="12.19047619047619" height="12.19047619047619" style="fill:#000000;shape-rendering:crispEdges;"/><rect x="146.28571428571428" y="85.33333333333333" width="12.19047619047619" height="12.19047619047619" style="fill:#000000;shape-rendering:crispEdges;"/><rect x="0" y="97.52380952380952" width="12.19047619047619" height="12.19047619047619" style="fill:#000000;shape-rendering:crispEdges;"/><rect x="36.57142857142857" y="97.52380952380952" width="12.19047619047619" height="12.19047619047619" style="fill:#000000;shape-rendering:crispEdges;"/><rect x="48.76190476190476" y="97.52380952380952" width="12.19047619047619" height="12.19047619047619" style="fill:#000000;shape-rendering:crispEdges;"/><rect x="60.95238095238095" y="97.52380952380952" width="12.19047619047619" height="12.19047619047619" style="fill:#000000;shape-rendering:crispEdges;"/><rect x="73.14285714285714" y="97.52380952380952" width="12.19047619047619" height="12.19047619047619" style="fill:#000000;shape-rendering:crispEdges;"/><rect x="85.33333333333333" y="97.52380952380952" width="12.19047619047619" height="12.19047619047619" style="fill:#000000;shape-rendering:crispEdges;"/><rect x="97.52380952380952" y="97.52380952380952" width="12.19047619047619" height="12.19047619047619" style="fill:#000000;shape-rendering:crispEdges;"/><rect x="121.9047619047619" y="97.52380952380952" width="12.19047619047619" height="12.19047619047619" style="fill:#000000;shape-rendering:crispEdges;"/><rect x="146.28571428571428" y="97.52380952380952" width="12.19047619047619" height="12.19047619047619" style="fill:#000000;shape-rendering:crispEdges;"/><rect x="158.47619047619048" y="97.52380952380952" width="12.19047619047619" height="12.19047619047619" style="fill:#000000;shape-rendering:crispEdges;"/><rect x="170.66666666666666" y="97.52380952380952" width="12.19047619047619" height="12.19047619047619" style="fill:#000000;shape-rendering:crispEdges;"/><rect x="195.04761904761904" y="97.52380952380952" width="12.19047619047619" height="12.19047619047619" style="fill:#000000;shape-rendering:crispEdges;"/><rect x="243.8095238095238" y="97.52380952380952" width="12.19047619047619" height="12.19047619047619" style="fill:#000000;shape-rendering:crispEdges;"/><rect x="0" y="109.71428571428571" width="12.19047619047619" height="12.19047619047619" style="fill:#000000;shape-rendering:crispEdges;"/><rect x="12.19047619047619" y="109.71428571428571" width="12.19047619047619" height="12.19047619047619" style="fill:#000000;shape-rendering:crispEdges;"/><rect x="24.38095238095238" y="109.71428571428571" width="12.19047619047619" height="12.19047619047619" style="fill:#000000;shape-rendering:crispEdges;"/><rect x="60.95238095238095" y="109.71428571428571" width="12.19047619047619" height="12.19047619047619" style="fill:#000000;shape-rendering:crispEdges;"/><rect x="109.71428571428571" y="109.71428571428571" width="12.19047619047619" height="12.19047619047619" style="fill:#000000;shape-rendering:crispEdges;"/><rect x="121.9047619047619" y="109.71428571428571" width="12.19047619047619" height="12.19047619047619" style="fill:#000000;shape-rendering:crispEdges;"/><rect x="134.09523809523807" y="109.71428571428571" width="12.19047619047619" height="12.19047619047619" style="fill:#000000;shape-rendering:crispEdges;"/><rect x="146.28571428571428" y="109.71428571428571" width="12.19047619047619" height="12.19047619047619" style="fill:#000000;shape-rendering:crispEdges;"/><rect x="158.47619047619048" y="109.71428571428571" width="12.19047619047619" height="12.19047619047619" style="fill:#000000;shape-rendering:crispEdges;"/><rect x="195.04761904761904" y="109.71428571428571" width="12.19047619047619" height="12.19047619047619" style="fill:#000000;shape-rendering:crispEdges;"/><rect x="207.23809523809524" y="109.71428571428571" width="12.19047619047619" height="12.19047619047619" style="fill:#000000;shape-rendering:crispEdges;"/><rect x="219.42857142857142" y="109.71428571428571" width="12.19047619047619" height="12.19047619047619" style="fill:#000000;shape-rendering:crispEdges;"/><rect x="243.8095238095238" y="109.71428571428571" width="12.19047619047619" height="12.19047619047619" style="fill:#000000;shape-rendering:crispEdges;"/><rect x="12.19047619047619" y="121.9047619047619" width="12.19047619047619" height="12.19047619047619" style="fill:#000000;shape-rendering:crispEdges;"/><rect x="36.57142857142857" y="121.9047619047619" width="12.19047619047619" height="12.19047619047619" style="fill:#000000;shape-rendering:crispEdges;"/><rect x="73.14285714285714" y="121.9047619047619" width="12.19047619047619" height="12.19047619047619" style="fill:#000000;shape-rendering:crispEdges;"/><rect x="85.33333333333333" y="121.9047619047619" width="12.19047619047619" height="12.19047619047619" style="fill:#000000;shape-rendering:crispEdges;"/><rect x="109.71428571428571" y="121.9047619047619" width="12.19047619047619" height="12.19047619047619" style="fill:#000000;shape-rendering:crispEdges;"/><rect x="60.95238095238095" y="134.09523809523807" width="12.19047619047619" height="12.19047619047619" style="fill:#000000;shape-rendering:crispEdges;"/><rect x="85.33333333333333" y="134.09523809523807" width="12.19047619047619" height="12.19047619047619" style="fill:#000000;shape-rendering:crispEdges;"/><rect x="97.52380952380952" y="134.09523809523807" width="12.19047619047619" height="12.19047619047619" style="fill:#000000;shape-rendering:crispEdges;"/><rect x="109.71428571428571" y="134.09523809523807" width="12.19047619047619" height="12.19047619047619" style="fill:#000000;shape-rendering:crispEdges;"/><rect x="121.9047619047619" y="134.09523809523807" width="12.19047619047619" height="12.19047619047619" style="fill:#000000;shape-rendering:crispEdges;"/><rect x="182.85714285714283" y="134.09523809523807" width="12.19047619047619" height="12.19047619047619" style="fill:#000000;shape-rendering:crispEdges;"/><rect x="195.04761904761904" y="134.09523809523807" width="12.19047619047619" height="12.19047619047619" style="fill:#000000;shape-rendering:crispEdges;"/><rect x="207.23809523809524" y="134.09523809523807" width="12.19047619047619" height="12.19047619047619" style="fill:#000000;shape-rendering:crispEdges;"/><rect x="219.42857142857142" y="134.09523809523807" width="12.19047619047619" height="12.19047619047619" style="fill:#000000;shape-rendering:crispEdges;"/><rect x="12.19047619047619" y="146.28571428571428" width="12.19047619047619" height="12.19047619047619" style="fill:#000000;shape-rendering:crispEdges;"/><rect x="36.57142857142857" y="146.28571428571428" width="12.19047619047619" height="12.19047619047619" style="fill:#000000;shape-rendering:crispEdges;"/><rect x="48.76190476190476" y="146.28571428571428" width="12.19047619047619" height="12.19047619047619" style="fill:#000000;shape-rendering:crispEdges;"/><rect x="73.14285714285714" y="146.28571428571428" width="12.19047619047619" height="12.19047619047619" style="fill:#000000;shape-rendering:crispEdges;"/><rect x="85.33333333333333" y="146.28571428571428" width="12.19047619047619" height="12.19047619047619" style="fill:#000000;shape-rendering:crispEdges;"/><rect x="109.71428571428571" y="146.28571428571428" width="12.19047619047619" height="12.19047619047619" style="fill:#000000;shape-rendering:crispEdges;"/><rect x="146.28571428571428" y="146.28571428571428" width="12.19047619047619" height="12.19047619047619" style="fill:#000000;shape-rendering:crispEdges;"/><rect x="158.47619047619048" y="146.28571428571428" width="12.19047619047619" height="12.19047619047619" style="fill:#000000;shape-rendering:crispEdges;"/><rect x="170.66666666666666" y="146.28571428571428" width="12.19047619047619" height="12.19047619047619" style="fill:#000000;shape-rendering:crispEdges;"/><rect x="182.85714285714283" y="146.28571428571428" width="12.19047619047619" height="12.19047619047619" style="fill:#000000;shape-rendering:crispEdges;"/><rect x="207.23809523809524" y="146.28571428571428" width="12.19047619047619" height="12.19047619047619" style="fill:#000000;shape-rendering:crispEdges;"/><rect x="243.8095238095238" y="146.28571428571428" width="12.19047619047619" height="12.19047619047619" style="fill:#000000;shape-rendering:crispEdges;"/><rect x="97.52380952380952" y="158.47619047619048" width="12.19047619047619" height="12.19047619047619" style="fill:#000000;shape-rendering:crispEdges;"/><rect x="134.09523809523807" y="158.47619047619048" width="12.19047619047619" height="12.19047619047619" style="fill:#000000;shape-rendering:crispEdges;"/><rect x="146.28571428571428" y="158.47619047619048" width="12.19047619047619" height="12.19047619047619" style="fill:#000000;shape-rendering:crispEdges;"/><rect x="158.47619047619048" y="158.47619047619048" width="12.19047619047619" height="12.19047619047619" style="fill:#000000;shape-rendering:crispEdges;"/><rect x="170.66666666666666" y="158.47619047619048" width="12.19047619047619" height="12.19047619047619" style="fill:#000000;shape-rendering:crispEdges;"/><rect x="231.6190476190476" y="158.47619047619048" width="12.19047619047619" height="12.19047619047619" style="fill:#000000;shape-rendering:crispEdges;"/><rect x="243.8095238095238" y="158.47619047619048" width="12.19047619047619" height="12.19047619047619" style="fill:#000000;shape-rendering:crispEdges;"/><rect x="0" y="170.66666666666666" width="12.19047619047619" height="12.19047619047619" style="fill:#000000;shape-rendering:crispEdges;"/><rect x="12.19047619047619" y="170.66666666666666" width="12.19047619047619" height="12.19047619047619" style="fill:#000000;shape-rendering:crispEdges;"/><rect x="24.38095238095238" y="170.66666666666666" width="12.19047619047619" height="12.19047619047619" style="fill:#000000;shape-rendering:crispEdges;"/><rect x="36.57142857142857" y="170.66666666666666" width="12.19047619047619" height="12.19047619047619" style="fill:#000000;shape-rendering:crispEdges;"/><rect x="48.76190476190476" y="170.66666666666666" width="12.19047619047619" height="12.19047619047619" style="fill:#000000;shape-rendering:crispEdges;"/><rect x="60.95238095238095" y="170.66666666666666" width="12.19047619047619" height="12.19047619047619" style="fill:#000000;shape-rendering:crispEdges;"/><rect x="73.14285714285714" y="170.66666666666666" width="12.19047619047619" height="12.19047619047619" style="fill:#000000;shape-rendering:crispEdges;"/><rect x="97.52380952380952" y="170.66666666666666" width="12.19047619047619" height="12.19047619047619" style="fill:#000000;shape-rendering:crispEdges;"/><rect x="121.9047619047619" y="170.66666666666666" width="12.19047619047619" height="12.19047619047619" style="fill:#000000;shape-rendering:crispEdges;"/><rect x="134.09523809523807" y="170.66666666666666" width="12.19047619047619" height="12.19047619047619" style="fill:#000000;shape-rendering:crispEdges;"/><rect x="146.28571428571428" y="170.66666666666666" width="12.19047619047619" height="12.19047619047619" style="fill:#000000;shape-rendering:crispEdges;"/><rect x="158.47619047619048" y="170.66666666666666" width="12.19047619047619" height="12.19047619047619" style="fill:#000000;shape-rendering:crispEdges;"/><rect x="195.04761904761904" y="170.66666666666666" width="12.19047619047619" height="12.19047619047619" style="fill:#000000;shape-rendering:crispEdges;"/><rect x="219.42857142857142" y="170.66666666666666" width="12.19047619047619" height="12.19047619047619" style="fill:#000000;shape-rendering:crispEdges;"/><rect x="231.6190476190476" y="170.66666666666666" width="12.19047619047619" height="12.19047619047619" style="fill:#000000;shape-rendering:crispEdges;"/><rect x="243.8095238095238" y="170.66666666666666" width="12.19047619047619" height="12.19047619047619" style="fill:#000000;shape-rendering:crispEdges;"/><rect x="0" y="182.85714285714283" width="12.19047619047619" height="12.19047619047619" style="fill:#000000;shape-rendering:crispEdges;"/><rect x="73.14285714285714" y="182.85714285714283" width="12.19047619047619" height="12.19047619047619" style="fill:#000000;shape-rendering:crispEdges;"/><rect x="97.52380952380952" y="182.85714285714283" width="12.19047619047619" height="12.19047619047619" style="fill:#000000;shape-rendering:crispEdges;"/><rect x="109.71428571428571" y="182.85714285714283" width="12.19047619047619" height="12.19047619047619" style="fill:#000000;shape-rendering:crispEdges;"/><rect x="121.9047619047619" y="182.85714285714283" width="12.19047619047619" height="12.19047619047619" style="fill:#000000;shape-rendering:crispEdges;"/><rect x="182.85714285714283" y="182.85714285714283" width="12.19047619047619" height="12.19047619047619" style="fill:#000000;shape-rendering:crispEdges;"/><rect x="195.04761904761904" y="182.85714285714283" width="12.19047619047619" height="12.19047619047619" style="fill:#000000;shape-rendering:crispEdges;"/><rect x="207.23809523809524" y="182.85714285714283" width="12.19047619047619" height="12.19047619047619" style="fill:#000000;shape-rendering:crispEdges;"/><rect x="219.42857142857142" y="182.85714285714283" width="12.19047619047619" height="12.19047619047619" style="fill:#000000;shape-rendering:crispEdges;"/><rect x="0" y="195.04761904761904" width="12.19047619047619" height="12.19047619047619" style="fill:#000000;shape-rendering:crispEdges;"/><rect x="24.38095238095238" y="195.04761904761904" width="12.19047619047619" height="12.19047619047619" style="fill:#000000;shape-rendering:crispEdges;"/><rect x="36.57142857142857" y="195.04761904761904" width="12.19047619047619" height="12.19047619047619" style="fill:#000000;shape-rendering:crispEdges;"/><rect x="48.76190476190476" y="195.04761904761904" width="12.19047619047619" height="12.19047619047619" style="fill:#000000;shape-rendering:crispEdges;"/><rect x="73.14285714285714" y="195.04761904761904" width="12.19047619047619" height="12.19047619047619" style="fill:#000000;shape-rendering:crispEdges;"/><rect x="97.52380952380952" y="195.04761904761904" width="12.19047619047619" height="12.19047619047619" style="fill:#000000;shape-rendering:crispEdges;"/><rect x="121.9047619047619" y="195.04761904761904" width="12.19047619047619" height="12.19047619047619" style="fill:#000000;shape-rendering:crispEdges;"/><rect x="134.09523809523807" y="195.04761904761904" width="12.19047619047619" height="12.19047619047619" style="fill:#000000;shape-rendering:crispEdges;"/><rect x="195.04761904761904" y="195.04761904761904" width="12.19047619047619" height="12.19047619047619" style="fill:#000000;shape-rendering:crispEdges;"/><rect x="219.42857142857142" y="195.04761904761904" width="12.19047619047619" height="12.19047619047619" style="fill:#000000;shape-rendering:crispEdges;"/><rect x="231.6190476190476" y="195.04761904761904" width="12.19047619047619" height="12.19047619047619" style="fill:#000000;shape-rendering:crispEdges;"/><rect x="0" y="207.23809523809524" width="12.19047619047619" height="12.19047619047619" style="fill:#000000;shape-rendering:crispEdges;"/><rect x="24.38095238095238" y="207.23809523809524" width="12.19047619047619" height="12.19047619047619" style="fill:#000000;shape-rendering:crispEdges;"/><rect x="36.57142857142857" y="207.23809523809524" width="12.19047619047619" height="12.19047619047619" style="fill:#000000;shape-rendering:crispEdges;"/><rect x="48.76190476190476" y="207.23809523809524" width="12.19047619047619" height="12.19047619047619" style="fill:#000000;shape-rendering:crispEdges;"/><rect x="73.14285714285714" y="207.23809523809524" width="12.19047619047619" height="12.19047619047619" style="fill:#000000;shape-rendering:crispEdges;"/><rect x="97.52380952380952" y="207.23809523809524" width="12.19047619047619" height="12.19047619047619" style="fill:#000000;shape-rendering:crispEdges;"/><rect x="121.9047619047619" y="207.23809523809524" width="12.19047619047619" height="12.19047619047619" style="fill:#000000;shape-rendering:crispEdges;"/><rect x="134.09523809523807" y="207.23809523809524" width="12.19047619047619" height="12.19047619047619" style="fill:#000000;shape-rendering:crispEdges;"/><rect x="146.28571428571428" y="207.23809523809524" width="12.19047619047619" height="12.19047619047619" style="fill:#000000;shape-rendering:crispEdges;"/><rect x="182.85714285714283" y="207.23809523809524" width="12.19047619047619" height="12.19047619047619" style="fill:#000000;shape-rendering:crispEdges;"/><rect x="207.23809523809524" y="207.23809523809524" width="12.19047619047619" height="12.19047619047619" style="fill:#000000;shape-rendering:crispEdges;"/><rect x="219.42857142857142" y="207.23809523809524" width="12.19047619047619" height="12.19047619047619" style="fill:#000000;shape-rendering:crispEdges;"/><rect x="0" y="219.42857142857142" width="12.19047619047619" height="12.19047619047619" style="fill:#000000;shape-rendering:crispEdges;"/><rect x="24.38095238095238" y="219.42857142857142" width="12.19047619047619" height="12.19047619047619" style="fill:#000000;shape-rendering:crispEdges;"/><rect x="36.57142857142857" y="219.42857142857142" width="12.19047619047619" height="12.19047619047619" style="fill:#000000;shape-rendering:crispEdges;"/><rect x="48.76190476190476" y="219.42857142857142" width="12.19047619047619" height="12.19047619047619" style="fill:#000000;shape-rendering:crispEdges;"/><rect x="73.14285714285714" y="219.42857142857142" width="12.19047619047619" height="12.19047619047619" style="fill:#000000;shape-rendering:crispEdges;"/><rect x="109.71428571428571" y="219.42857142857142" width="12.19047619047619" height="12.19047619047619" style="fill:#000000;shape-rendering:crispEdges;"/><rect x="121.9047619047619" y="219.42857142857142" width="12.19047619047619" height="12.19047619047619" style="fill:#000000;shape-rendering:crispEdges;"/><rect x="158.47619047619048" y="219.42857142857142" width="12.19047619047619" height="12.19047619047619" style="fill:#000000;shape-rendering:crispEdges;"/><rect x="170.66666666666666" y="219.42857142857142" width="12.19047619047619" height="12.19047619047619" style="fill:#000000;shape-rendering:crispEdges;"/><rect x="195.04761904761904" y="219.42857142857142" width="12.19047619047619" height="12.19047619047619" style="fill:#000000;shape-rendering:crispEdges;"/><rect x="219.42857142857142" y="219.42857142857142" width="12.19047619047619" height="12.19047619047619" style="fill:#000000;shape-rendering:crispEdges;"/><rect x="231.6190476190476" y="219.42857142857142" width="12.19047619047619" height="12.19047619047619" style="fill:#000000;shape-rendering:crispEdges;"/><rect x="243.8095238095238" y="219.42857142857142" width="12.19047619047619" height="12.19047619047619" style="fill:#000000;shape-rendering:crispEdges;"/><rect x="0" y="231.6190476190476" width="12.19047619047619" height="12.19047619047619" style="fill:#000000;shape-rendering:crispEdges;"/><rect x="73.14285714285714" y="231.6190476190476" width="12.19047619047619" height="12.19047619047619" style="fill:#000000;shape-rendering:crispEdges;"/><rect x="134.09523809523807" y="231.6190476190476" width="12.19047619047619" height="12.19047619047619" style="fill:#000000;shape-rendering:crispEdges;"/><rect x="146.28571428571428" y="231.6190476190476" width="12.19047619047619" height="12.19047619047619" style="fill:#000000;shape-rendering:crispEdges;"/><rect x="182.85714285714283" y="231.6190476190476" width="12.19047619047619" height="12.19047619047619" style="fill:#000000;shape-rendering:crispEdges;"/><rect x="195.04761904761904" y="231.6190476190476" width="12.19047619047619" height="12.19047619047619" style="fill:#000000;shape-rendering:crispEdges;"/><rect x="207.23809523809524" y="231.6190476190476" width="12.19047619047619" height="12.19047619047619" style="fill:#000000;shape-rendering:crispEdges;"/><rect x="0" y="243.8095238095238" width="12.19047619047619" height="12.19047619047619" style="fill:#000000;shape-rendering:crispEdges;"/><rect x="12.19047619047619" y="243.8095238095238" width="12.19047619047619" height="12.19047619047619" style="fill:#000000;shape-rendering:crispEdges;"/><rect x="24.38095238095238" y="243.8095238095238" width="12.19047619047619" height="12.19047619047619" style="fill:#000000;shape-rendering:crispEdges;"/><rect x="36.57142857142857" y="243.8095238095238" width="12.19047619047619" height="12.19047619047619" style="fill:#000000;shape-rendering:crispEdges;"/><rect x="48.76190476190476" y="243.8095238095238" width="12.19047619047619" height="12.19047619047619" style="fill:#000000;shape-rendering:crispEdges;"/><rect x="60.95238095238095" y="243.8095238095238" width="12.19047619047619" height="12.19047619047619" style="fill:#000000;shape-rendering:crispEdges;"/><rect x="73.14285714285714" y="243.8095238095238" width="12.19047619047619" height="12.19047619047619" style="fill:#000000;shape-rendering:crispEdges;"/><rect x="97.52380952380952" y="243.8095238095238" width="12.19047619047619" height="12.19047619047619" style="fill:#000000;shape-rendering:crispEdges;"/><rect x="146.28571428571428" y="243.8095238095238" width="12.19047619047619" height="12.19047619047619" style="fill:#000000;shape-rendering:crispEdges;"/><rect x="182.85714285714283" y="243.8095238095238" width="12.19047619047619" height="12.19047619047619" style="fill:#000000;shape-rendering:crispEdges;"/><rect x="195.04761904761904" y="243.8095238095238" width="12.19047619047619" height="12.19047619047619" style="fill:#000000;shape-rendering:crispEdges;"/><rect x="207.23809523809524" y="243.8095238095238" width="12.19047619047619" height="12.19047619047619" style="fill:#000000;shape-rendering:crispEdges;"/><rect x="243.8095238095238" y="243.8095238095238" width="12.19047619047619" height="12.19047619047619" style="fill:#000000;shape-rendering:crispEdges;"/></svg>