<?xml version="1.0" standalone="yes"?>
<svg xmlns="http://www.w3.org/2000/svg" version="1.1" width="256" height="256">
<rect x="0" y="0" width="256" height="256" style="fill:#ffffff;shape-rendering:crispEdges;"/>
<rect x="35.310344827586206" y="35.310344827586206" width="8.827586206896552" height="8.827586206896552" style="fill:#000000;shape-rendering:crispEdges;"/>
<rect x="44.13793103448276" y="35.310344827586206" width="8.827586206896552" height="8.827586206896552" style="fill:#000000;shape-rendering:crispEdges;"/>
<rect x="52.96551724137931" y="35.310344827586206" width="8.827586206896552" height="8.827586206896552" style="fill:#000000;shape-rendering:crispEdges;"/>
<rect x="61.79310344827586" y="35.310344827586206" width="8.827586206896552" height="8.827586206896552" style="fill:#000000;shape-rendering:crispEdges;"/>
<rect x="70.62068965517241" y="35.310344827586206" width="8.827586206896552" height="8.827586206896552" style="fill:#000000;shape-rendering:crispEdges;"/>
<rect x="79.44827586206897" y="35.310344827586206" width="8.827586206896552" height="8.827586206896552" style="fill:#000000;shape-rendering:crispEdges;"/>
<rect x="88.27586206896552" y="35.310344827586206" width="8.827586206896552" height="8.827586206896552" style="fill:#000000;shape-rendering:crispEdges;"/>
<rect x="105.93103448275862" y="35.310344827586206" width="8.827586206896552" height="8.827586206896552" style="fill:#000000;shape-rendering:crispEdges;"/>
<rect x="114.75862068965517" y="35.310344827586206" width="8.827586206896552" height="8.827586206896552" style="fill:#000000;shape-rendering:crispEdges;"/>
<rect x="123.58620689655173" y="35.310344827586206" width="8.827586206896552" height="8.827586206896552" style="fill:#000000;shape-rendering:crispEdges;"/>
<rect x="158.8965517241379" y="35.310344827586206" width="8.827586206896552" height="8.827586206896552" style="fill:#000000;shape-rendering:crispEdges;"/>
<rect x="167.72413793103448" y="35.310344827586206" width="8.827586206896552" height="8.827586206896552" style="fill:#000000;shape-rendering:crispEdges;"/>
<rect x="176.55172413793105" y="35.310344827586206" width="8.827586206896552" height="8.827586206896552" style="fill:#000000;shape-rendering:crispEdges;"/>
<rect x="185.37931034482756" y="35.310344827586206" width="8.827586206896552" height="8.827586206896552" style="fill:#000000;shape-rendering:crispEdges;"/>
<rect x="194.20689655172413" y="35.310344827586206" width="8.827586206896552" height="8.827586206896552" style="fill:#000000;shape-rendering:crispEdges;"/>
<rect x="203.0344827586207" y="35.310344827586206" width="8.827586206896552" height="8.827586206896552" style="fill:#000000;shape-rendering:crispEdges;"/>
<rect x="211.86206896551727" y="35.310344827586206" width="8.827586206896552" height="8.827586206896552" style="fill:#000000;shape-rendering:crispEdges;"/>
<rect x="35.310344827586206" y="44.13793103448276" width="8.827586206896552" height="8.827586206896552" style="fill:#000000;shape-rendering:crispEdges;"/>
<rect x="88.27586206896552" y="44.13793103448276" width="8.827586206896552" height="8.827586206896552" style="fill:#000000;shape-rendering:crispEdges;"/>
<rect x="123.58620689655173" y="44.13793103448276" width="8.827586206896552" height="8.827586206896552" style="fill:#000000;shape-rendering:crispEdges;"/>
<rect x="141.24137931034483" y="44.13793103448276" width="8.827586206896552" height="8.827586206896552" style="fill:#000000;shape-rendering:crispEdges;"/>
<rect x="158.8965517241379" y="44.13793103448276" width="8.827586206896552" height="8.827586206896552" style="fill:#000000;shape-rendering:crispEdges;"/>
<rect x="211.86206896551727" y="44.13793103448276" width="8.827586206896552" height="8.827586206896552" style="fill:#000000;shape-rendering:crispEdges;"/>
<rect x="35.310344827586206" y="52.96551724137931" width="8.827586206896552" height="8.827586206896552" style="fill:#000000;shape-rendering:crispEdges;"/>
<rect x="52.96551724137931" y="52.96551724137931" width="8.827586206896552" height="8.827586206896552" style="fill:#000000;shape-rendering:crispEdges;"/>
<rect x="61.79310344827586" y="52.96551724137931" width="8.827586206896552" height="8.827586206896552" style="fill:#000000;shape-rendering:crispEdges;"/>
<rect x="70.62068965517241" y="52.96551724137931" width="8.827586206896552" height="8.827586206896552" style="fill:#000000;shape-rendering:crispEdges;"/>
<rect x="88.27586206896552" y="52.96551724137931" width="8.827586206896552" height="8.827586206896552" style="fill:#000000;shape-rendering:crispEdges;"/>
<rect x="123.58620689655173" y="52.96551724137931" width="8.827586206896552" height="8.827586206896552" style="fill:#000000;shape-rendering:crispEdges;"/>
<rect x="158.8965517241379" y="52.96551724137931" width="8.827586206896552" height="8.827586206896552" style="fill:#000000;shape-rendering:crispEdges;"/>
<rect x="176.55172413793105" y="52.96551724137931" width="8.827586206896552" height="8.827586206896552" style="fill:#000000;shape-rendering:crispEdges;"/>
<rect x="185.37931034482756" y="52.96551724137931" width="8.827586206896552" height="8.827586206896552" style="fill:#000000;shape-rendering:crispEdges;"/>
<rect x="194.20689655172413" y="52.96551724137931" width="8.827586206896552" height="8.827586206896552" style="fill:#000000;shape-rendering:crispEdges;"/>
<rect x="211.86206896551727" y="52.96551724137931" width="8.827586206896552" height="8.827586206896552" style="fill:#000000;shape-rendering:crispEdges;"/>
<rect x="35.310344827586206" y="61.79310344827586" width="8.827586206896552" height="8.827586206896552" style="fill:#000000;shape-rendering:crispEdges;"/>
<rect x="52.96551724137931" y="61.79310344827586" width="8.827586206896552" height="8.827586206896552" style="fill:#000000;shape-rendering:crispEdges;"/>
<rect x="61.79310344827586" y="61.79310344827586" width="8.827586206896552" height="8.827586206896552" style="fill:#000000;shape-rendering:crispEdges;"/>
<rect x="70.62068965517241" y="61.79310344827586" width="8.827586206896552" height="8.827586206896552" style="fill:#000000;shape-rendering:crispEdges;"/>
<rect x="88.27586206896552" y="61.79310344827586" width="8.827586206896552" height="8.827586206896552" style="fill:#000000;shape-rendering:crispEdges;"/>
<rect x="114.75862068965517" y="61.79310344827586" width="8.827586206896552" height="8.827586206896552" style="fill:#000000;shape-rendering:crispEdges;"/>
<rect x="123.58620689655173" y="61.79310344827586" width="8.827586206896552" height="8.827586206896552" style="fill:#000000;shape-rendering:crispEdges;"/>
<rect x="132.41379310344826" y="61.79310344827586" width="8.827586206896552" height="8.827586206896552" style="fill:#000000;shape-rendering:crispEdges;"/>
<rect x="141.24137931034483" y="61.79310344827586" width="8.827586206896552" height="8.827586206896552" style="fill:#000000;shape-rendering:crispEdges;"/>
<rect x="158.8965517241379" y="61.79310344827586" width="8.827586206896552" height="8.827586206896552" style="fill:#000000;shape-rendering:crispEdges;"/>
<rect x="176.55172413793105" y="61.79310344827586" width="8.827586206896552" height="8.827586206896552" style="fill:#000000;shape-rendering:crispEdges;"/>
<rect x="185.37931034482756" y="61.79310344827586" width="8.827586206896552" height="8.827586206896552" style="fill:#000000;shape-rendering:crispEdges;"/>
<rect x="194.20689655172413" y="61.79310344827586" width="8.827586206896552" height="8.827586206896552" style="fill:#000000;shape-rendering:crispEdges;"/>
<rect x="211.86206896551727" y="61.79310344827586" width="8.827586206896552" height="8.827586206896552" style="fill:#000000;shape-rendering:crispEdges;"/>
<rect x="35.310344827586206" y="70.62068965517241" width="8.827586206896552" height="8.827586206896552" style="fill:#000000;shape-rendering:crispEdges;"/>
<rect x="52.96551724137931" y="70.62068965517241" width="8.827586206896552" height="8.827586206896552" style="fill:#000000;shape-rendering:crispEdges;"/>
<rect x="61.79310344827586" y="70.62068965517241" width="8.827586206896552" height="8.827586206896552" style="fill:#000000;shape-rendering:crispEdges;"/>
<rect x="70.62068965517241" y="70.62068965517241" width="8.827586206896552" height="8.827586206896552" style="fill:#000000;shape-rendering:crispEdges;"/>
<rect x="88.27586206896552" y="70.62068965517241" width="8.827586206896552" height="8.827586206896552" style="fill:#000000;shape-rendering:crispEdges;"/>
<rect x="105.93103448275862" y="70.62068965517241" width="8.827586206896552" height="8.827586206896552" style="fill:#000000;shape-rendering:crispEdges;"/>
<rect x="114.75862068965517" y="70.62068965517241" width="8.827586206896552" height="8.827586206896552" style="fill:#000000;shape-rendering:crispEdges;"/>
<rect x="123.58620689655173" y="70.62068965517241" width="8.827586206896552" height="8.827586206896552" style="fill:#000000;shape-rendering:crispEdges;"/>
<rect x="132.41379310344826" y="70.62068965517241" width="8.827586206896552" height="8.827586206896552" style="fill:#000000;shape-rendering:crispEdges;"/>
<rect x="158.8965517241379" y="70.62068965517241" width="8.827586206896552" height="8.827586206896552" style="fill:#000000;shape-rendering:crispEdges;"/>
<rect x="176.55172413793105" y="70.62068965517241" width="8.827586206896552" height="8.827586206896552" style="fill:#000000;shape-rendering:crispEdges;"/>
<rect x="185.37931034482756" y="70.62068965517241" width="8.827586206896552" height="8.827586206896552" style="fill:#000000;shape-rendering:crispEdges;"/>
<rect x="194.20689655172413" y="70.62068965517241" width="8.827586206896552" height="8.827586206896552" style="fill:#000000;shape-rendering:crispEdges;"/>
<rect x="211.86206896551727" y="70.62068965517241" width="8.827586206896552" height="8.827586206896552" style="fill:#000000;shape-rendering:crispEdges;"/>
<rect x="35.310344827586206" y="79.44827586206897" width="8.827586206896552" height="8.827586206896552" style="fill:#000000;shape-rendering:crispEdges;"/>
<rect x="88.27586206896552" y="79.44827586206897" width="8.827586206896552" height="8.827586206896552" style="fill:#000000;shape-rendering:crispEdges;"/>
<rect x="123.58620689655173" y="79.44827586206897" width="8.827586206896552" height="8.827586206896552" style="fill:#000000;shape-rendering:crispEdges;"/>
<rect x="158.8965517241379" y="79.44827586206897" width="8.827586206896552" height="8.827586206896552" style="fill:#000000;shape-rendering:crispEdges;"/>
<rect x="211.86206896551727" y="79.44827586206897" width="8.827586206896552" height="8.827586206896552" style="fill:#000000;shape-rendering:crispEdges;"/>
<rect x="35.310344827586206" y="88.27586206896552" width="8.827586206896552" height="8.827586206896552" style="fill:#000000;shape-rendering:crispEdges;"/>
<rect x="44.13793103448276" y="88.27586206896552" width="8.827586206896552" height="8.827586206896552" style="fill:#000000;shape-rendering:crispEdges;"/>
<rect x="52.96551724137931" y="88.27586206896552" width="8.827586206896552" height="8.827586206896552" style="fill:#000000;shape-rendering:crispEdges;"/>
<rect x="61.79310344827586" y="88.27586206896552" width="8.827586206896552" height="8.827586206896552" style="fill:#000000;shape-rendering:crispEdges;"/>
<rect x="70.62068965517241" y="88.27586206896552" width="8.827586206896552" height="8.827586206896552" style="fill:#000000;shape-rendering:crispEdges;"/>
<rect x="79.44827586206897" y="88.27586206896552" width="8.827586206896552" height="8.827586206896552" style="fill:#000000;shape-rendering:crispEdges;"/>
<rect x="88.27586206896552" y="88.27586206896552" width="8.827586206896552" height="8.827586206896552" style="fill:#000000;shape-rendering:crispEdges;"/>
<rect x="105.93103448275862" y="88.27586206896552" width="8.827586206896552" height="8.827586206896552" style="fill:#000000;shape-rendering:crispEdges;"/>
<rect x="123.58620689655173" y="88.27586206896552" width="8.827586206896552" height="8.827586206896552" style="fill:#000000;shape-rendering:crispEdges;"/>
<rect x="141.24137931034483" y="88.27586206896552" width="8.827586206896552" height="8.827586206896552" style="fill:#000000;shape-rendering:crispEdges;"/>
<rect x="158.8965517241379" y="88.27586206896552" width="8.827586206896552" height="8.827586206896552" style="fill:#000000;shape-rendering:crispEdges;"/>
<rect x="167.72413793103448" y="88.27586206896552" width="8.827586206896552" height="8.827586206896552" style="fill:#000000;shape-rendering:crispEdges;"/>
<rect x="176.55172413793105" y="88.27586206896552" width="8.827586206896552" height="8.827586206896552" style="fill:#000000;shape-rendering:crispEdges;"/>
<rect x="185.37931034482756" y="88.27586206896552" width="8.827586206896552" height="8.827586206896552" style="fill:#000000;shape-rendering:crispEdges;"/>
<rect x="194.20689655172413" y="88.27586206896552" width="8.827586206896552" height="8.827586206896552" style="fill:#000000;shape-rendering:crispEdges;"/>
<rect x="203.0344827586207" y="88.27586206896552" width="8.827586206896552" height="8.827586206896552" style="fill:#000000;shape-rendering:crispEdges;"/>
<rect x="211.86206896551727" y="88.27586206896552" width="8.827586206896552" height="8.827586206896552" style="fill:#000000;shape-rendering:crispEdges;"/>
<rect x="105.93103448275862" y="97.10344827586206" width="8.827586206896552" height="8.827586206896552" style="fill:#000000;shape-rendering:crispEdges;"/>
<rect x="114.75862068965517" y="97.10344827586206" width="8.827586206896552" height="8.827586206896552" style="fill:#000000;shape-rendering:crispEdges;"/>
<rect x="132.41379310344826" y="97.10344827586206" width="8.827586206896552" height="8.827586206896552" style="fill:#000000;shape-rendering:crispEdges;"/>
<rect x="141.24137931034483" y="97.10344827586206" width="8.827586206896552" height="8.827586206896552" style="fill:#000000;shape-rendering:crispEdges;"/>
<rect x="35.310344827586206" y="105.93103448275862" width="8.827586206896552" height="8.827586206896552" style="fill:#000000;shape-rendering:crispEdges;"/>
<rect x="61.79310344827586" y="105.93103448275862" width="8.827586206896552" height="8.827586206896552" style="fill:#000000;shape-rendering:crispEdges;"/>
<rect x="70.62068965517241" y="105.93103448275862" width="8.827586206896552" height="8.827586206896552" style="fill:#000000;shape-rendering:crispEdges;"/>
<rect x="79.44827586206897" y="105.93103448275862" width="8.827586206896552" height="8.827586206896552" style="fill:#000000;shape-rendering:crispEdges;"/>
<rect x="88.27586206896552" y="105.93103448275862" width="8.827586206896552" height="8.827586206896552" style="fill:#000000;shape-rendering:crispEdges;"/>
<rect x="97.10344827586206" y="105.93103448275862" width="8.827586206896552" height="8.827586206896552" style="fill:#000000;shape-rendering:crispEdges;"/>
<rect x="105.93103448275862" y="105.93103448275862" width="8.827586206896552" height="8.827586206896552" style="fill:#000000;shape-rendering:crispEdges;"/>
<rect x="123.58620689655173" y="105.93103448275862" width="8.827586206896552" height="8.827586206896552" style="fill:#000000;shape-rendering:crispEdges;"/>
<rect x="141.24137931034483" y="105.93103448275862" width="8.827586206896552" height="8.827586206896552" style="fill:#000000;shape-rendering:crispEdges;"/>
<rect x="150.0689655172414" y="105.93103448275862" width="8.827586206896552" height="8.827586206896552" style="fill:#000000;shape-rendering:crispEdges;"/>
<rect x="158.8965517241379" y="105.93103448275862" width="8.827586206896552" height="8.827586206896552" style="fill:#000000;shape-rendering:crispEdges;"/>
<rect x="176.55172413793105" y="105.93103448275862" width="8.827586206896552" height="8.827586206896552" style="fill:#000000;shape-rendering:crispEdges;"/>
<rect x="211.86206896551727" y="105.93103448275862" width="8.827586206896552" height="8.827586206896552" style="fill:#000000;shape-rendering:crispEdges;"/>
<rect x="35.310344827586206" y="114.75862068965517" width="8.827586206896552" height="8.827586206896552" style="fill:#000000;shape-rendering:crispEdges;"/>
<rect x="44.13793103448276" y="114.75862068965517" width="8.827586206896552" height="8.827586206896552" style="fill:#000000;shape-rendering:crispEdges;"/>
<rect x="52.96551724137931" y="114.75862068965517" width="8.827586206896552" height="8.827586206896552" style="fill:#000000;shape-rendering:crispEdges;"/>
<rect x="79.44827586206897" y="114.75862068965517" width="8.827586206896552" height="8.827586206896552" style="fill:#000000;shape-rendering:crispEdges;"/>
<rect x="114.75862068965517" y="114.75862068965517" width="8.827586206896552" height="8.827586206896552" style="fill:#000000;shape-rendering:crispEdges;"/>
<rect x="123.58620689655173" y="114.75862068965517" width="8.827586206896552" height="8.827586206896552" style="fill:#000000;shape-rendering:crispEdges;"/>
<rect x="132.41379310344826" y="114.75862068965517" width="8.827586206896552" height="8.827586206896552" style="fill:#000000;shape-rendering:crispEdges;"/>
<rect x="141.24137931034483" y="114.75862068965517" width="8.827586206896552" height="8.827586206896552" style="fill:#000000;shape-rendering:crispEdges;"/>
<rect x="150.0689655172414" y="114.75862068965517" width="8.827586206896552" height="8.827586206896552" style="fill:#000000;shape-rendering:crispEdges;"/>
<rect x="176.55172413793105" y="114.75862068965517" width="8.827586206896552" height="8.827586206896552" style="fill:#000000;shape-rendering:crispEdges;"/>
<rect x="185.37931034482756" y="114.75862068965517" width="8.827586206896552" height="8.827586206896552" style="fill:#000000;shape-rendering:crispEdges;"/>
<rect x="194.20689655172413" y="114.75862068965517" width="8.827586206896552" height="8.827586206896552" style="fill:#000000;shape-rendering:crispEdges;"/>
<rect x="211.86206896551727" y="114.75862068965517" width="8.827586206896552" height="8.827586206896552" style="fill:#000000;shape-rendering:crispEdges;"/>
<rect x="44.13793103448276" y="123.58620689655173" width="8.827586206896552" height="8.827586206896552" style="fill:#000000;shape-rendering:crispEdges;"/>
<rect x="61.79310344827586" y="123.58620689655173" width="8.827586206896552" height="8.827586206896552" style="fill:#000000;shape-rendering:crispEdges;"/>
<rect x="88.27586206896552" y="123.58620689655173" width="8.827586206896552" height="8.827586206896552" style="fill:#000000;shape-rendering:crispEdges;"/>
<rect x="97.10344827586206" y="123.58620689655173" width="8.827586206896552" height="8.827586206896552" style="fill:#000000;shape-rendering:crispEdges;"/>
<rect x="114.75862068965517" y="123.58620689655173" width="8.827586206896552" height="8.827586206896552" style="fill:#000000;shape-rendering:crispEdges;"/>
<rect x="79.44827586206897" y="132.41379310344826" width="8.827586206896552" height="8.827586206896552" style="fill:#000000;shape-rendering:crispEdges;"/>
<rect x="97.10344827586206" y="132.41379310344826" width="8.827586206896552" height="8.827586206896552" style="fill:#000000;shape-rendering:crispEdges;"/>
<rect x="105.93103448275862" y="132.41379310344826" width="8.827586206896552" height="8.827586206896552" style="fill:#000000;shape-rendering:crispEdges;"/>
<rect x="114.75862068965517" y="132.41379310344826" width="8.827586206896552" height="8.827586206896552" style="fill:#000000;shape-rendering:crispEdges;"/>
<rect x="123.58620689655173" y="132.41379310344826" width="8.827586206896552" height="8.827586206896552" style="fill:#000000;shape-rendering:crispEdges;"/>
<rect x="167.72413793103448" y="132.41379310344826" width="8.827586206896552" height="8.827586206896552" style="fill:#000000;shape-rendering:crispEdges;"/>
<rect x="176.55172413793105" y="132.41379310344826" width="8.827586206896552" height="8.827586206896552" style="fill:#000000;shape-rendering:crispEdges;"/>
<rect x="185.37931034482756" y="132.41379310344826" width="8.827586206896552" height="8.827586206896552" style="fill:#000000;shape-rendering:crispEdges;"/>
<rect x="194.20689655172413" y="132.41379310344826" width="8.827586206896552" height="8.827586206896552" style="fill:#000000;shape-rendering:crispEdges;"/>
<rect x="44.13793103448276" y="141.24137931034483" width="8.827586206896552" height="8.827586206896552" style="fill:#000000;shape-rendering:crispEdges;"/>
<rect x="61.79310344827586" y="141.24137931034483" width="8.827586206896552" height="8.827586206896552" style="fill:#000000;shape-rendering:crispEdges;"/>
<rect x="70.62068965517241" y="141.24137931034483" width="8.827586206896552" height="8.827586206896552" style="fill:#000000;shape-rendering:crispEdges;"/>
<rect x="88.27586206896552" y="141.24137931034483" width="8.827586206896552" height="8.827586206896552" style="fill:#000000;shape-rendering:crispEdges;"/>
<rect x="97.10344827586206" y="141.24137931034483" width="8.827586206896552" height="8.827586206896552" style="fill:#000000;shape-rendering:crispEdges;"/>
<rect x="114.75862068965517" y="141.24137931034483" width="8.827586206896552" height="8.827586206896552" style="fill:#000000;shape-rendering:crispEdges;"/>
<rect x="141.24137931034483" y="141.24137931034483" width="8.827586206896552" height="8.827586206896552" style="fill:#000000;shape-rendering:crispEdges;"/>
<rect x="150.0689655172414" y="141.24137931034483" width="8.827586206896552" height="8.827586206896552" style="fill:#000000;shape-rendering:crispEdges;"/>
<rect x="158.8965517241379" y="141.24137931034483" width="8.827586206896552" height="8.827586206896552" style="fill:#000000;shape-rendering:crispEdges;"/>
<rect x="167.72413793103448" y="141.24137931034483" width="8.827586206896552" height="8.827586206896552" style="fill:#000000;shape-rendering:crispEdges;"/>
<rect x="185.37931034482756" y="141.24137931034483" width="8.827586206896552" height="8.827586206896552" style="fill:#000000;shape-rendering:crispEdges;"/>
<rect x="211.86206896551727" y="141.24137931034483" width="8.827586206896552" height="8.827586206896552" style="fill:#000000;shape-rendering:crispEdges;"/>
<rect x="105.93103448275862" y="150.0689655172414" width="8.827586206896552" height="8.827586206896552" style="fill:#000000;shape-rendering:crispEdges;"/>
<rect x="132.41379310344826" y="150.0689655172414" width="8.827586206896552" height="8.827586206896552" style="fill:#000000;shape-rendering:crispEdges;"/>
<rect x="141.24137931034483" y="150.0689655172414" width="8.827586206896552" height="8.827586206896552" style="fill:#000000;shape-rendering:crispEdges;"/>
<rect x="150.0689655172414" y="150.0689655172414" width="8.827586206896552" height="8.827586206896552" style="fill:#000000;shape-rendering:crispEdges;"/>
<rect x="158.8965517241379" y="150.0689655172414" width="8.827586206896552" height="8.827586206896552" style="fill:#000000;shape-rendering:crispEdges;"/>
<rect x="203.0344827586207" y="150.0689655172414" width="8.827586206896552" height="8.827586206896552" style="fill:#000000;shape-rendering:crispEdges;"/>
<rect x="211.86206896551727" y="150.0689655172414" width="8.827586206896552" height="8.827586206896552" style="fill:#000000;shape-rendering:crispEdges;"/>
<rect x="35.310344827586206" y="158.8965517241379" width="8.827586206896552" height="8.827586206896552" style="fill:#000000;shape-rendering:crispEdges;"/>
<rect x="44.13793103448276" y="158.8965517241379" width="8.827586206896552" height="8.827586206896552" style="fill:#000000;shape-rendering:crispEdges;"/>
<rect x="52.96551724137931" y="158.8965517241379" width="8.827586206896552" height="8.827586206896552" style="fill:#000000;shape-rendering:crispEdges;"/>
<rect x="61.79310344827586" y="158.8965517241379" width="8.827586206896552" height="8.827586206896552" style="fill:#000000;shape-rendering:crispEdges;"/>
<rect x="70.62068965517241" y="158.8965517241379" width="8.827586206896552" height="8.827586206896552" style="fill:#000000;shape-rendering:crispEdges;"/>
<rect x="79.44827586206897" y="158.8965517241379" width="8.827586206896552" height="8.827586206896552" style="fill:#000000;shape-rendering:crispEdges;"/>
<rect x="88.27586206896552" y="158.8965517241379" width="8.827586206896552" height="8.827586206896552" style="fill:#000000;shape-rendering:crispEdges;"/>
<rect x="105.93103448275862" y="158.8965517241379" width="8.827586206896552" height="8.827586206896552" style="fill:#000000;shape-rendering:crispEdges;"/>
<rect x="123.58620689655173" y="158.8965517241379" width="8.827586206896552" height="8.827586206896552" style="fill:#000000;shape-rendering:crispEdges;"/>
<rect x="132.41379310344826" y="158.8965517241379" width="8.827586206896552" height="8.827586206896552" style="fill:#000000;shape-rendering:crispEdges;"/>
<rect x="141.24137931034483" y="158.8965517241379" width="8.827586206896552" height="8.827586206896552" style="fill:#000000;shape-rendering:crispEdges;"/>
<rect x="150.0689655172414" y="158.8965517241379" width="8.827586206896552" height="8.827586206896552" style="fill:#000000;shape-rendering:crispEdges;"/>
<rect x="176.55172413793105" y="158.8965517241379" width="8.827586206896552" height="8.827586206896552" style="fill:#000000;shape-rendering:crispEdges;"/>
<rect x="194.20689655172413" y="158.8965517241379" width="8.827586206896552" height="8.827586206896552" style="fill:#000000;shape-rendering:crispEdges;"/>
<rect x="203.0344827586207" y="158.8965517241379" width="8.827586206896552" height="8.827586206896552" style="fill:#000000;shape-rendering:crispEdges;"/>
<rect x="211.86206896551727" y="158.8965517241379" width="8.827586206896552" height="8.827586206896552" style="fill:#000000;shape-rendering:crispEdges;"/>
<rect x="35.310344827586206" y="167.72413793103448" width="8.827586206896552" height="8.827586206896552" style="fill:#000000;shape-rendering:crispEdges;"/>
<rect x="88.27586206896552" y="167.72413793103448" width="8.827586206896552" height="8.827586206896552" style="fill:#000000;shape-rendering:crispEdges;"/>
<rect x="105.93103448275862" y="167.72413793103448" width="8.827586206896552" height="8.827586206896552" style="fill:#000000;shape-rendering:crispEdges;"/>
<rect x="114.75862068965517" y="167.72413793103448" width="8.827586206896552" height="8.827586206896552" style="fill:#000000;shape-rendering:crispEdges;"/>
<rect x="123.58620689655173" y="167.72413793103448" width="8.827586206896552" height="8.827586206896552" style="fill:#000000;shape-rendering:crispEdges;"/>
<rect x="167.72413793103448" y="167.72413793103448" width="8.827586206896552" height="8.827586206896552" style="fill:#000000;shape-rendering:crispEdges;"/>
<rect x="176.55172413793105" y="167.72413793103448" width="8.827586206896552" height="8.827586206896552" style="fill:#000000;shape-rendering:crispEdges;"/>
<rect x="185.37931034482756" y="167.72413793103448" width="8.827586206896552" height="8.827586206896552" style="fill:#000000;shape-rendering:crispEdges;"/>
<rect x="194.20689655172413" y="167.72413793103448" width="8.827586206896552" height="8.827586206896552" style="fill:#000000;shape-rendering:crispEdges;"/>
<rect x="35.310344827586206" y="176.55172413793105" width="8.827586206896552" height="8.827586206896552" style="fill:#000000;shape-rendering:crispEdges;"/>
<rect x="52.96551724137931" y="176.55172413793105" width="8.827586206896552" height="8.827586206896552" style="fill:#000000;shape-rendering:crispEdges;"/>
<rect x="61.79310344827586" y="176.55172413793105" width="8.827586206896552" height="8.827586206896552" style="fill:#000000;shape-rendering:crispEdges;"/>
<rect x="70.62068965517241" y="176.55172413793105" width="8.827586206896552" height="8.827586206896552" style="fill:#000000;shape-rendering:crispEdges;"/>
<rect x="88.27586206896552" y="176.55172413793105" width="8.827586206896552" height="8.827586206896552" style="fill:#000000;shape-rendering:crispEdges;"/>
<rect x="105.93103448275862" y="176.55172413793105" width="8.827586206896552" height="8.827586206896552" style="fill:#000000;shape-rendering:crispEdges;"/>
<rect x="123.58620689655173" y="176.55172413793105" width="8.827586206896552" height="8.827586206896552" style="fill:#000000;shape-rendering:crispEdges;"/>
<rect x="132.41379310344826" y="176.55172413793105" width="8.827586206896552" height="8.827586206896552" style="fill:#000000;shape-rendering:crispEdges;"/>
<rect x="176.55172413793105" y="176.55172413793105" width="8.827586206896552" height="8.827586206896552" style="fill:#000000;shape-rendering:crispEdges;"/>
<rect x="194.20689655172413" y="176.55172413793105" width="8.827586206896552" height="8.827586206896552" style="fill:#000000;shape-rendering:crispEdges;"/>
<rect x="203.0344827586207" y="176.55172413793105" width="8.827586206896552" height="8.827586206896552" style="fill:#000000;shape-rendering:crispEdges;"/>
<rect x="35.310344827586206" y="185.37931034482756" width="8.827586206896552" height="8.827586206896552" style="fill:#000000;shape-rendering:crispEdges;"/>
<rect x="52.96551724137931" y="185.37931034482756" width="8.827586206896552" height="8.827586206896552" style="fill:#000000;shape-rendering:crispEdges;"/>
<rect x="61.79310344827586" y="185.37931034482756" width="8.827586206896552" height="8.827586206896552" style="fill:#000000;shape-rendering:crispEdges;"/>
<rect x="70.62068965517241" y="185.37931034482756" width="8.827586206896552" height="8.827586206896552" style="fill:#000000;shape-rendering:crispEdges;"/>
<rect x="88.27586206896552" y="185.37931034482756" width="8.827586206896552" height="8.827586206896552" style="fill:#000000;shape-rendering:crispEdges;"/>
<rect x="105.93103448275862" y="185.37931034482756" width="8.827586206896552" height="8.827586206896552" style="fill:#000000;shape-rendering:crispEdges;"/>
<rect x="123.58620689655173" y="185.37931034482756" width="8.827586206896552" height="8.827586206896552" style="fill:#000000;shape-rendering:crispEdges;"/>
<rect x="132.41379310344826" y="185.37931034482756" width="8.827586206896552" height="8.827586206896552" style="fill:#000000;shape-rendering:crispEdges;"/>
<rect x="141.24137931034483" y="185.37931034482756" width="8.827586206896552" height="8.827586206896552" style="fill:#000000;shape-rendering:crispEdges;"/>
<rect x="167.72413793103448" y="185.37931034482756" width="8.827586206896552" height="8.827586206896552" style="fill:#000000;shape-rendering:crispEdges;"/>
<rect x="185.37931034482756" y="185.37931034482756" width="8.827586206896552" height="8.827586206896552" style="fill:#000000;shape-rendering:crispEdges;"/>
<rect x="194.20689655172413" y="185.37931034482756" width="8.827586206896552" height="8.827586206896552" style="fill:#000000;shape-rendering:crispEdges;"/>
<rect x="35.310344827586206" y="194.20689655172413" width="8.827586206896552" height="8.827586206896552" style="fill:#000000;shape-rendering:crispEdges;"/>
<rect x="52.96551724137931" y="194.20689655172413" width="8.827586206896552" height="8.827586206896552" style="fill:#000000;shape-rendering:crispEdges;"/>
<rect x="61.79310344827586" y="194.20689655172413" width="8.827586206896552" height="8.827586206896552" style="fill:#000000;shape-rendering:crispEdges;"/>
<rect x="70.62068965517241" y="194.20689655172413" width="8.827586206896552" height="8.827586206896552" style="fill:#000000;shape-rendering:crispEdges;"/>
<rect x="88.27586206896552" y="194.20689655172413" width="8.827586206896552" height="8.827586206896552" style="fill:#000000;shape-rendering:crispEdges;"/>
<rect x="114.75862068965517" y="194.20689655172413" width="8.827586206896552" height="8.827586206896552" style="fill:#000000;shape-rendering:crispEdges;"/>
<rect x="123.58620689655173" y="194.20689655172413" width="8.827586206896552" height="8.827586206896552" style="fill:#000000;shape-rendering:crispEdges;"/>
<rect x="150.0689655172414" y="194.20689655172413" width="8.827586206896552" height="8.827586206896552" style="fill:#000000;shape-rendering:crispEdges;"/>
<rect x="158.8965517241379" y="194.20689655172413" width="8.827586206896552" height="8.827586206896552" style="fill:#000000;shape-rendering:crispEdges;"/>
<rect x="176.55172413793105" y="194.20689655172413" width="8.827586206896552" height="8.827586206896552" style="fill:#000000;shape-rendering:crispEdges;"/>
<rect x="194.20689655172413" y="194.20689655172413" width="8.827586206896552" height="8.827586206896552" style="fill:#000000;shape-rendering:crispEdges;"/>
<rect x="203.0344827586207" y="194.20689655172413" width="8.827586206896552" height="8.827586206896552" style="fill:#000000;shape-rendering:crispEdges;"/>
<rect x="211.86206896551727" y="194.20689655172413" width="8.827586206896552" height="8.827586206896552" style="fill:#000000;shape-rendering:crispEdges;"/>
<rect x="35.310344827586206" y="203.0344827586207" width="8.827586206896552" height="8.827586206896552" style="fill:#000000;shape-rendering:crispEdges;"/>
<rect x="88.27586206896552" y="203.0344827586207" width="8.827586206896552" height="8.827586206896552" style="fill:#000000;shape-rendering:crispEdges;"/>
<rect x="132.41379310344826" y="203.0344827586207" width="8.827586206896552" height="8.827586206896552" style="fill:#000000;shape-rendering:crispEdges;"/>
<rect x="141.24137931034483" y="203.0344827586207" width="8.827586206896552" height="8.827586206896552" style="fill:#000000;shape-rendering:crispEdges;"/>
<rect x="167.72413793103448" y="203.0344827586207" width="8.827586206896552" height="8.827586206896552" style="fill:#000000;shape-rendering:crispEdges;"/>
<rect x="176.55172413793105" y="203.0344827586207" width="8.827586206896552" height="8.827586206896552" style="fill:#000000;shape-rendering:crispEdges;"/>
<rect x="185.37931034482756" y="203.0344827586207" width="8.827586206896552" height="8.827586206896552" style="fill:#000000;shape-rendering:crispEdges;"/>
<rect x="35.310344827586206" y="211.86206896551727" width="8.827586206896552" height="8.827586206896552" style="fill:#000000;shape-rendering:crispEdges;"/>
<rect x="44.13793103448276" y="211.86206896551727" width="8.827586206896552" height="8.827586206896552" style="fill:#000000;shape-rendering:crispEdges;"/>
<rect x="52.96551724137931" y="211.86206896551727" width="8.827586206896552" height="8.827586206896552" style="fill:#000000;shape-rendering:crispEdges;"/>
<rect x="61.79310344827586" y="211.86206896551727" width="8.827586206896552" height="8.827586206896552" style="fill:#000000;shape-rendering:crispEdges;"/>
<rect x="70.62068965517241" y="211.86206896551727" width="8.827586206896552" height="8.827586206896552" style="fill:#000000;shape-rendering:crispEdges;"/>
<rect x="79.44827586206897" y="211.86206896551727" width="8.827586206896552" height="8.827586206896552" style="fill:#000000;shape-rendering:crispEdges;"/>
<rect x="88.27586206896552" y="211.86206896551727" width="8.827586206896552" height="8.827586206896552" style="fill:#000000;shape-rendering:crispEdges;"/>
<rect x="105.93103448275862" y="211.86206896551727" width="8.827586206896552" height="8.827586206896552" style="fill:#000000;shape-rendering:crispEdges;"/>
<rect x="141.24137931034483" y="211.86206896551727" width="8.827586206896552" height="8.827586206896552" style="fill:#000000;shape-rendering:crispEdges;"/>
<rect x="167.72413793103448" y="211.86206896551727" width="8.827586206896552" height="8.827586206896552" style="fill:#000000;shape-rendering:crispEdges;"/>
<rect x="176.55172413793105" y="211.86206896551727" width="8.827586206896552" height="8.827586206896552" style="fill:#000000;shape-rendering:crispEdges;"/>
<rect x="185.37931034482756" y="211.86206896551727" width="8.827586206896552" height="8.827586206896552" style="fill:#000000;shape-rendering:crispEdges;"/>
<rect x="211.86206896551727" y="211.86206896551727" width="8.827586206896552" height="8.827586206896552" style="fill:#000000;shape-rendering:crispEdges;"/>
</svg>